<svg width="41" height="24" viewBox="0 0 41 24" fill="none" xmlns="http://www.w3.org/2000/svg">
<path d="M9.13348 24C7.31587 24 5.7141 23.6536 4.32818 22.9609C2.96497 22.2682 1.89713 21.2849 1.12464 20.0112C0.374881 18.7374 0 17.2626 0 15.5866V8.34637C0 6.69274 0.374881 5.24022 1.12464 3.98883C1.89713 2.71508 2.96497 1.73184 4.32818 1.03911C5.7141 0.346368 7.31587 0 9.13348 0C10.9511 0 12.5415 0.335195 13.9047 1.00559C15.2906 1.65363 16.3585 2.58101 17.1082 3.78771C17.8807 4.97207 18.267 6.34637 18.267 7.91061C18.267 8.02235 18.2215 8.11173 18.1306 8.17877C18.0625 8.24581 17.9716 8.27933 17.858 8.27933L13.0186 8.58101C12.746 8.58101 12.6097 8.4581 12.6097 8.21229C12.6097 7.16201 12.2916 6.32402 11.6554 5.69832C11.0192 5.07262 10.1786 4.75978 9.13348 4.75978C8.08836 4.75978 7.24771 5.0838 6.61155 5.73184C5.97539 6.35754 5.6573 7.18436 5.6573 8.21229V15.8212C5.6573 16.8492 5.97539 17.676 6.61155 18.3017C7.24771 18.9274 8.08836 19.2402 9.13348 19.2402C10.1786 19.2402 11.0192 18.9274 11.6554 18.3017C12.2916 17.676 12.6097 16.8492 12.6097 15.8212C12.6097 15.5754 12.746 15.4525 13.0186 15.4525L17.858 15.6871C17.9716 15.6871 18.0625 15.7207 18.1306 15.7877C18.2215 15.8547 18.267 15.933 18.267 16.0223C18.267 17.6089 17.8807 19.0056 17.1082 20.2123C16.3585 21.419 15.2906 22.3575 13.9047 23.0279C12.5415 23.676 10.9511 24 9.13348 24Z" fill="#303859"/>
<path d="M21.5514 23.7318C21.4378 23.7318 21.3356 23.6983 21.2447 23.6313C21.1765 23.5419 21.1425 23.4413 21.1425 23.3296V0.67039C21.1425 0.558659 21.1765 0.469274 21.2447 0.402234C21.3356 0.312848 21.4378 0.268155 21.5514 0.268155H26.3908C26.5044 0.268155 26.5953 0.312848 26.6635 0.402234C26.7543 0.469274 26.7998 0.558659 26.7998 0.67039V9.38547C26.7998 9.45251 26.8225 9.4972 26.8679 9.51955C26.9134 9.51955 26.9588 9.49721 27.0043 9.45251L33.8885 0.502793C34.0248 0.346368 34.1838 0.268155 34.3656 0.268155H39.8866C40.1138 0.268155 40.2274 0.346368 40.2274 0.502793C40.2274 0.569832 40.1933 0.659216 40.1251 0.770947L32.7638 10.4581C32.7184 10.5475 32.707 10.6257 32.7297 10.6927L40.4318 23.2626C40.4773 23.3967 40.5 23.4749 40.5 23.4972C40.5 23.6536 40.3864 23.7318 40.1592 23.7318H34.7405C34.4905 23.7318 34.3201 23.6425 34.2293 23.4637L28.8787 14.514C28.8105 14.3799 28.731 14.3799 28.6401 14.514L26.8679 16.8939C26.8225 16.9832 26.7998 17.0503 26.7998 17.095V23.3296C26.7998 23.4413 26.7543 23.5419 26.6635 23.6313C26.5953 23.6983 26.5044 23.7318 26.3908 23.7318H21.5514Z" fill="#303859"/>
</svg>
