<svg width="48" height="48" viewBox="0 0 48 48" fill="none" xmlns="http://www.w3.org/2000/svg">
<path d="M15.2047 35.224C13.7114 35.224 12.3954 34.9347 11.2567 34.356C10.1367 33.7773 9.25939 32.956 8.62472 31.892C8.00872 30.828 7.70072 29.596 7.70072 28.196V22.148C7.70072 20.7667 8.00872 19.5533 8.62472 18.508C9.25939 17.444 10.1367 16.6227 11.2567 16.044C12.3954 15.4653 13.7114 15.176 15.2047 15.176C16.6981 15.176 18.0047 15.456 19.1247 16.016C20.2634 16.5573 21.1407 17.332 21.7567 18.34C22.3914 19.3293 22.7087 20.4773 22.7087 21.784C22.7087 21.8773 22.6714 21.952 22.5967 22.008C22.5407 22.064 22.4661 22.092 22.3727 22.092L18.3967 22.344C18.1727 22.344 18.0607 22.2413 18.0607 22.036C18.0607 21.1587 17.7994 20.4587 17.2767 19.936C16.7541 19.4133 16.0634 19.152 15.2047 19.152C14.3461 19.152 13.6554 19.4227 13.1327 19.964C12.6101 20.4867 12.3487 21.1773 12.3487 22.036V28.392C12.3487 29.2507 12.6101 29.9413 13.1327 30.464C13.6554 30.9867 14.3461 31.248 15.2047 31.248C16.0634 31.248 16.7541 30.9867 17.2767 30.464C17.7994 29.9413 18.0607 29.2507 18.0607 28.392C18.0607 28.1867 18.1727 28.084 18.3967 28.084L22.3727 28.28C22.4661 28.28 22.5407 28.308 22.5967 28.364C22.6714 28.42 22.7087 28.4853 22.7087 28.56C22.7087 29.8853 22.3914 31.052 21.7567 32.06C21.1407 33.068 20.2634 33.852 19.1247 34.412C18.0047 34.9533 16.6981 35.224 15.2047 35.224ZM25.4072 35C25.3139 35 25.2299 34.972 25.1552 34.916C25.0992 34.8413 25.0712 34.7573 25.0712 34.664V15.736C25.0712 15.6427 25.0992 15.568 25.1552 15.512C25.2299 15.4373 25.3139 15.4 25.4072 15.4H29.3832C29.4766 15.4 29.5512 15.4373 29.6072 15.512C29.6819 15.568 29.7192 15.6427 29.7192 15.736V23.016C29.7192 23.072 29.7379 23.1093 29.7752 23.128C29.8126 23.128 29.8499 23.1093 29.8872 23.072L35.5432 15.596C35.6552 15.4653 35.7859 15.4 35.9352 15.4H40.4712C40.6579 15.4 40.7512 15.4653 40.7512 15.596C40.7512 15.652 40.7232 15.7267 40.6672 15.82L34.6192 23.912C34.5819 23.9867 34.5726 24.052 34.5912 24.108L40.9192 34.608C40.9566 34.72 40.9752 34.7853 40.9752 34.804C40.9752 34.9347 40.8819 35 40.6952 35H36.2432C36.0379 35 35.8979 34.9253 35.8232 34.776L31.4272 27.3C31.3712 27.188 31.3059 27.188 31.2312 27.3L29.7752 29.288C29.7379 29.3627 29.7192 29.4187 29.7192 29.456V34.664C29.7192 34.7573 29.6819 34.8413 29.6072 34.916C29.5512 34.972 29.4766 35 29.3832 35H25.4072Z" fill="#5A648C"/>
</svg>
