<svg width="260" height="417" viewBox="0 0 260 417" fill="none" xmlns="http://www.w3.org/2000/svg">
<path d="M8.99998 370.5C27.9705 271.891 62.9149 77.351 69.0001 53C70.6085 46.8235 73.0672 40.9246 76.7636 37.3514C80.7065 33.0389 89.359 28.6268 95.0001 28C128.167 21.3333 196.012 7.99777 215.5 4.49999C235.5 0.910187 244.867 17.5 243.5 28.5C230.167 135.833 204.385 353.825 201 376.5C197.215 401.854 179.827 407.62 167.4 408.603C131.067 407.937 56.3854 408.095 35.4341 407.372C24.4232 406.992 15.3723 401.684 12.0164 395.386C8.16916 388.165 7.17536 380.036 8.99998 370.5Z" fill="black"/>
</svg>
