<svg width="260" height="417" viewBox="0 0 260 417" fill="none" xmlns="http://www.w3.org/2000/svg">
<path d="M8.99998 370.5C27.9705 271.891 62.9149 77.351 69.0001 53C70.6085 46.8235 73.0672 40.9246 76.7636 37.3514C80.7065 33.0389 89.359 28.6267 95.0001 27.9999C128.167 21.3332 196.012 7.99771 215.5 4.49993C234.189 2.59676 242.623 12.0004 243.381 28.0727C243.556 31.7721 237.214 77.9595 237.214 77.9595C237.214 77.9595 237.757 77.9972 237.595 79.382C236.512 88.6486 234.694 103.285 233.424 113.774C233.178 115.807 232.349 114.786 232.349 114.786C220.387 213.662 202.799 359.636 200.418 375.587C196.633 400.941 179.827 407.62 167.4 408.603C131.067 407.937 56.3854 408.095 35.4341 407.372C24.4232 406.992 15.3723 401.684 12.0164 395.386C8.16916 388.165 7.17536 380.036 8.99998 370.5Z" fill="black"/>
</svg>
