<svg width="24" height="24" viewBox="0 0 24 24" fill="none" xmlns="http://www.w3.org/2000/svg">
<path fill-rule="evenodd" clip-rule="evenodd" d="M19.4098 18.5202H19.4098C19.2709 18.3816 19.153 18.2999 19.0492 18.2701C18.9439 18.2399 18.8499 18.2624 18.7773 18.3352L18.709 18.4034C17.9935 19.1189 17.1604 19.6807 16.2327 20.073C15.2727 20.4791 14.2526 20.685 13.2008 20.685C12.1489 20.685 11.1289 20.4791 10.1689 20.073C9.24132 19.6807 8.40822 19.119 7.69274 18.4034C6.94729 17.658 6.38557 16.825 6.0232 15.9274C5.66985 15.0522 5.55444 14.3939 5.51652 14.1776C5.51298 14.1573 5.51018 14.1413 5.50798 14.1297C5.45935 13.875 5.22491 13.8572 4.88798 13.9088C4.74788 13.9302 4.32149 13.9954 4.36209 14.3022L4.36307 14.3092C4.47596 15.0193 4.67535 15.7156 4.95582 16.3787C5.40659 17.4444 6.05171 18.4013 6.87331 19.2229C7.69491 20.0445 8.65184 20.6896 9.71752 21.1403C10.8208 21.6071 11.9928 21.8438 13.2008 21.8438C14.4082 21.8438 15.5802 21.607 16.6841 21.1399C17.7494 20.6894 18.7064 20.0442 19.5284 19.2221C19.5302 19.2203 19.5751 19.1757 19.5997 19.1489C19.6901 19.0505 19.7689 18.8782 19.4098 18.5202ZM13.1896 4.2655C12.0353 4.2655 10.8074 4.49852 9.90525 4.88877C9.80882 4.92653 9.75118 5.00398 9.7385 5.11281C9.72665 5.21546 9.75437 5.35091 9.82335 5.52715C9.87931 5.67012 10.0279 6.0499 10.3156 5.94016C11.2389 5.58795 12.2596 5.39399 13.1896 5.39399C14.2435 5.39399 15.2656 5.60027 16.2275 6.00709C16.9918 6.33044 17.713 6.79751 18.4971 7.47692C18.5543 7.5265 18.6149 7.55162 18.6774 7.55162C18.8303 7.55162 18.9769 7.40144 19.1023 7.26072C19.3117 7.02584 19.4555 6.83062 19.2492 6.63524C18.5004 5.92594 17.6799 5.39607 16.6671 4.96775C15.5655 4.50179 14.3955 4.2655 13.1896 4.2655ZM11.616 14.0257C11.6174 14.1561 11.7367 14.2705 11.8081 14.3389L11.8305 14.3605C11.9528 14.4808 12.0693 14.5418 12.1767 14.5418C12.2656 14.5418 12.3204 14.4997 12.3399 14.4816C12.3937 14.4316 13.0031 13.8141 13.0613 13.7552L13.7409 14.4326C13.8038 14.5035 13.8722 14.539 13.9519 14.5412C14.0604 14.5412 14.1787 14.4767 14.3034 14.3494C14.5967 14.05 14.4499 13.8885 14.379 13.8104L13.6904 13.1216L14.4085 12.3984C14.566 12.228 14.4269 12.0469 14.2882 11.9082C14.0868 11.7068 13.8925 11.6548 13.7679 11.7696L13.0539 12.4848L12.3318 11.7626C12.2935 11.7259 12.2452 11.7065 12.1922 11.7065C12.096 11.7065 11.9821 11.7716 11.8538 11.8999C11.6317 12.122 11.5841 12.2755 11.6997 12.3979L12.422 13.118L11.7039 13.8373C11.6448 13.8963 11.6153 13.9596 11.616 14.0257ZM7.037 15.0921C7.04133 15.104 7.14331 15.3861 7.20241 15.5259C7.52682 16.2929 7.99141 16.982 8.58325 17.5738C9.1747 18.1652 9.86381 18.6298 10.6315 18.9545C11.4262 19.2906 12.2702 19.4611 13.1401 19.4611C14.0098 19.4611 14.8538 19.2906 15.6487 18.9544C16.416 18.6298 17.1052 18.1652 17.6969 17.5735C18.2885 16.982 18.7531 16.2928 19.0777 15.5254C19.4139 14.7305 19.5844 13.8865 19.5844 13.0167C19.5844 12.1469 19.4139 11.3029 19.0777 10.5082C18.7531 9.74074 18.2886 9.0516 17.6969 8.45991C17.1054 7.86838 16.4162 7.4038 15.6487 7.07907C14.8539 6.74289 14.0099 6.57243 13.1401 6.57243C12.26 6.57243 11.3806 6.74761 10.5969 7.07907C9.97047 7.34406 8.91018 8.02627 8.28955 8.66635L8.28589 8.6701V3.36652L17.1949 3.36644C17.5191 3.3629 17.5191 2.91016 17.5191 2.76136C17.5191 2.61265 17.5191 2.16003 17.1939 2.15633L7.56092 2.15625C7.29868 2.15625 7.13634 2.37439 7.13634 2.5765V10.0416C7.13634 10.2824 7.43634 10.4563 7.71507 10.5159C8.25943 10.6322 8.3852 10.4582 8.51852 10.2741L8.5362 10.2497C8.73973 9.9473 9.37575 9.30718 9.38213 9.3008C10.3747 8.30824 11.7019 7.76164 13.1191 7.76164C14.5295 7.76164 15.8529 8.30824 16.8455 9.3008C17.8414 10.2968 18.3899 11.6164 18.3899 13.0167C18.3899 14.4221 17.8443 15.7417 16.8534 16.7326C15.8752 17.7108 14.5086 18.2718 13.1042 18.2718C12.153 18.2718 11.2347 18.0184 10.4482 17.5387L10.4515 12.9996C10.4515 12.3944 10.7142 11.7365 11.1541 11.2396C11.6571 10.6716 12.3502 10.3589 13.1059 10.3589C13.8378 10.3589 14.5213 10.6367 15.0306 11.1412C15.5363 11.6421 15.8147 12.3095 15.8147 13.0204C15.8147 14.5372 14.622 15.7254 13.0994 15.7254C12.8058 15.7254 12.2722 15.5957 12.2503 15.5904C11.9428 15.4988 11.812 15.9256 11.769 16.0663C11.6035 16.6074 11.8522 16.7146 11.9037 16.7307C12.3937 16.8827 12.715 16.9116 13.1365 16.9116C15.286 16.9116 17.0347 15.1619 17.0347 13.0114C17.0347 10.8782 15.2871 9.1426 13.1389 9.1426C12.0869 9.1426 11.0986 9.54473 10.3562 10.2749C9.64913 10.9703 9.24357 11.8975 9.24357 12.8186L9.24318 12.8414C9.23975 12.9563 9.23751 15.6774 9.23684 16.5704L9.23282 16.5659C8.82879 16.1185 8.42945 15.4337 8.1647 14.7341C8.0609 14.4599 7.82646 14.5084 7.50654 14.6069C7.36684 14.65 6.94167 14.7809 7.0357 15.0883L7.037 15.0921Z" fill="#A5A5B4"/>
</svg>
