<svg width="24" height="24" viewBox="0 0 24 24" fill="none" xmlns="http://www.w3.org/2000/svg">
<path fill-rule="evenodd" clip-rule="evenodd" d="M19.5385 12.6057C19.4352 11.3557 18.7835 10.7307 17.5852 10.7307C17.0119 10.7307 16.5435 10.9007 16.1785 11.239C15.8152 11.5774 15.6069 12.0324 15.5535 12.6057H19.5385ZM15.0467 7.76249H20.0467V6.55082H15.0467V7.76249ZM21.8435 15.2624C21.1918 17.2674 19.7985 18.269 17.6635 18.269C16.2568 18.269 15.1435 17.8407 14.3235 16.9807C13.5035 16.1207 13.0935 15.0007 13.0935 13.6207C13.0935 12.2407 13.5168 11.109 14.3635 10.2224C15.2085 9.33737 16.3101 8.89403 17.6635 8.89403C19.0185 8.89403 20.0851 9.36403 20.8668 10.3007C21.6218 11.1857 22.0001 12.319 22.0001 13.699L21.9601 14.1674H15.5535C15.5535 14.8974 15.7435 15.4574 16.1201 15.8474C16.4985 16.239 17.0385 16.434 17.7418 16.434C18.1585 16.434 18.5551 16.329 18.9335 16.1207C19.3101 15.9124 19.5518 15.6257 19.6551 15.2624H21.8435ZM7.58485 15.9257C8.93985 15.9257 9.61652 15.3924 9.61652 14.3241C9.61652 13.1524 8.96485 12.5674 7.66318 12.5674H4.69484V15.9257H7.58485ZM7.46817 10.6924C7.96317 10.6924 8.35983 10.5741 8.65983 10.3408C8.95817 10.1058 9.10817 9.74076 9.10817 9.24576C9.10817 8.3091 8.48317 7.84076 7.23317 7.84076H4.69484V10.6924H7.46817ZM7.78 5.73071C9.005 5.73071 9.92833 5.92571 10.5533 6.31738C11.335 6.83738 11.7267 7.67071 11.7267 8.81738C11.7267 9.96237 11.1667 10.809 10.0467 11.3557C10.8017 11.564 11.3683 11.9357 11.745 12.469C12.1233 13.0024 12.3117 13.674 12.3117 14.4807C12.3117 15.6524 11.8683 16.5507 10.9833 17.1757C10.2017 17.749 9.2 18.0357 7.97667 18.0357H2V5.73071H7.78Z" fill="#A5A5B4"/>
</svg>
