<svg width="24" height="24" viewBox="0 0 24 24" fill="none" xmlns="http://www.w3.org/2000/svg">
<path fill-rule="evenodd" clip-rule="evenodd" d="M12 5.49941C12.3076 5.49941 12.5571 5.24988 12.5571 4.94222V2.71344C12.5571 2.40578 12.3076 2.15625 12 2.15625C11.6923 2.15625 11.4428 2.40578 11.4428 2.71344V4.94222C11.4428 5.24988 11.6923 5.49941 12 5.49941ZM12 16.6432C9.43972 16.6432 7.35675 14.5603 7.35675 12C7.35675 9.43966 9.43972 7.35668 12 7.35668C14.5603 7.35668 16.6433 9.43966 16.6433 12C16.6433 14.5603 14.5603 16.6432 12 16.6432ZM11.9999 6.24228C8.82515 6.24228 6.24228 8.82515 6.24228 11.9999C6.24228 15.1747 8.82515 17.7576 11.9999 17.7576C15.1747 17.7576 17.7576 15.1747 17.7576 11.9999C17.7576 8.82515 15.1747 6.24228 11.9999 6.24228ZM11.4428 19.0578C11.4428 18.7502 11.6923 18.5006 12 18.5006C12.3076 18.5006 12.5571 18.7502 12.5571 19.0578V21.2866C12.5571 21.5943 12.3076 21.8438 12 21.8438C11.6923 21.8438 11.4428 21.5943 11.4428 21.2866V19.0578ZM21.2865 11.4428H19.0577C18.75 11.4428 18.5005 11.6923 18.5005 12C18.5005 12.3076 18.75 12.5571 19.0577 12.5571H21.2865C21.5941 12.5571 21.8436 12.3076 21.8436 12C21.8436 11.6923 21.5941 11.4428 21.2865 11.4428ZM2.71344 11.4428H4.94222C5.24988 11.4428 5.49941 11.6923 5.49941 12C5.49941 12.3076 5.24988 12.5571 4.94222 12.5571H2.71344C2.40578 12.5571 2.15625 12.3076 2.15625 12C2.15625 11.6923 2.40578 11.4428 2.71344 11.4428ZM16.9906 7.56663C17.1331 7.56663 17.2758 7.51221 17.3845 7.40346L18.3696 6.41844C18.5871 6.20086 18.5871 5.84806 18.3696 5.63047C18.1521 5.41289 17.7991 5.41289 17.5816 5.63047L16.5967 6.61541C16.379 6.83308 16.379 7.18579 16.5967 7.40346C16.7054 7.51221 16.848 7.56663 16.9906 7.56663ZM5.63066 17.5816L6.61559 16.5966C6.83318 16.379 7.18607 16.379 7.40356 16.5966C7.62123 16.8142 7.62123 17.167 7.40356 17.3845L6.41862 18.3695C6.30988 18.4784 6.16724 18.5328 6.0246 18.5328C5.88205 18.5328 5.73941 18.4784 5.63066 18.3695C5.41298 18.1519 5.41298 17.7991 5.63066 17.5816ZM17.3845 16.5966C17.167 16.379 16.814 16.379 16.5966 16.5966C16.3789 16.8142 16.3789 17.167 16.5966 17.3845L17.5816 18.3695C17.6903 18.4784 17.8329 18.5328 17.9755 18.5328C18.118 18.5328 18.2608 18.4784 18.3694 18.3695C18.5871 18.1519 18.5871 17.7991 18.3694 17.5816L17.3845 16.5966ZM7.00962 7.56663C6.86698 7.56663 6.72434 7.51221 6.61559 7.40346L5.63066 6.41853C5.41298 6.20086 5.41298 5.84806 5.63066 5.63047C5.84815 5.41289 6.20104 5.41289 6.41862 5.63047L7.40356 6.6155C7.62123 6.83308 7.62123 7.18588 7.40356 7.40346C7.29481 7.51221 7.15217 7.56663 7.00962 7.56663Z" fill="#A5A5B4"/>
<path d="M17.3845 7.40346L17.2077 7.22669L17.2077 7.22669L17.3845 7.40346ZM18.3696 6.41844L18.5463 6.59522L18.3696 6.41844ZM18.3696 5.63047L18.1927 5.80721L18.1928 5.80725L18.3696 5.63047ZM17.5816 5.63047L17.7584 5.80725L17.7584 5.80721L17.5816 5.63047ZM16.5967 6.61541L16.7734 6.79218V6.79218L16.5967 6.61541ZM16.5967 7.40346L16.7734 7.22669L16.5967 7.40346ZM6.61559 16.5966L6.79237 16.7734L6.79241 16.7734L6.61559 16.5966ZM5.63066 17.5816L5.8074 17.7584L5.80744 17.7583L5.63066 17.5816ZM7.40356 16.5966L7.22671 16.7733L7.22682 16.7734L7.40356 16.5966ZM7.40356 17.3845L7.22686 17.2076L7.22677 17.2077L7.40356 17.3845ZM6.41862 18.3695L6.24184 18.1928L6.24177 18.1928L6.41862 18.3695ZM5.63066 18.3695L5.80751 18.1928L5.8074 18.1927L5.63066 18.3695ZM16.5966 16.5966L16.7734 16.7734L16.7735 16.7733L16.5966 16.5966ZM17.3845 16.5966L17.2076 16.7733L17.2077 16.7734L17.3845 16.5966ZM16.5966 17.3845L16.7734 17.2077L16.7733 17.2076L16.5966 17.3845ZM17.5816 18.3695L17.7584 18.1928L17.7583 18.1928L17.5816 18.3695ZM18.3694 18.3695L18.1927 18.1927L18.1925 18.1929L18.3694 18.3695ZM18.3694 17.5816L18.1927 17.7583L18.1927 17.7584L18.3694 17.5816ZM6.61559 7.40346L6.79237 7.22669H6.79237L6.61559 7.40346ZM5.63066 6.41853L5.80744 6.24176H5.80744L5.63066 6.41853ZM5.63066 5.63047L5.8074 5.80729L5.80747 5.80721L5.63066 5.63047ZM6.41862 5.63047L6.59541 5.45371L6.5954 5.4537L6.41862 5.63047ZM7.40356 6.6155L7.22677 6.79227L7.22682 6.79231L7.40356 6.6155ZM7.40356 7.40346L7.22682 7.22665L7.22678 7.22669L7.40356 7.40346ZM12.3071 4.94222C12.3071 5.11181 12.1695 5.24941 12 5.24941V5.74941C12.4457 5.74941 12.8071 5.38795 12.8071 4.94222H12.3071ZM12.3071 2.71344V4.94222H12.8071V2.71344H12.3071ZM12 2.40625C12.1695 2.40625 12.3071 2.54385 12.3071 2.71344H12.8071C12.8071 2.26771 12.4457 1.90625 12 1.90625V2.40625ZM11.6928 2.71344C11.6928 2.54385 11.8304 2.40625 12 2.40625V1.90625C11.5542 1.90625 11.1928 2.26771 11.1928 2.71344H11.6928ZM11.6928 4.94222V2.71344H11.1928V4.94222H11.6928ZM12 5.24941C11.8304 5.24941 11.6928 5.11181 11.6928 4.94222H11.1928C11.1928 5.38795 11.5542 5.74941 12 5.74941V5.24941ZM7.10675 12C7.10675 14.6983 9.30165 16.8932 12 16.8932V16.3932C9.57779 16.3932 7.60675 14.4222 7.60675 12H7.10675ZM12 7.10668C9.30165 7.10668 7.10675 9.30158 7.10675 12H7.60675C7.60675 9.57773 9.57779 7.60668 12 7.60668V7.10668ZM16.8933 12C16.8933 9.30158 14.6984 7.10668 12 7.10668V7.60668C14.4223 7.60668 16.3933 9.57773 16.3933 12H16.8933ZM12 16.8932C14.6984 16.8932 16.8933 14.6983 16.8933 12H16.3933C16.3933 14.4222 14.4223 16.3932 12 16.3932V16.8932ZM6.49228 11.9999C6.49228 8.96322 8.96322 6.49228 11.9999 6.49228V5.99228C8.68707 5.99228 5.99228 8.68707 5.99228 11.9999H6.49228ZM11.9999 17.5076C8.96322 17.5076 6.49228 15.0367 6.49228 11.9999H5.99228C5.99228 15.3128 8.68707 18.0076 11.9999 18.0076V17.5076ZM17.5076 11.9999C17.5076 15.0367 15.0367 17.5076 11.9999 17.5076V18.0076C15.3128 18.0076 18.0076 15.3128 18.0076 11.9999H17.5076ZM11.9999 6.49228C15.0367 6.49228 17.5076 8.96322 17.5076 11.9999H18.0076C18.0076 8.68707 15.3128 5.99228 11.9999 5.99228V6.49228ZM12 18.2506C11.5542 18.2506 11.1928 18.6121 11.1928 19.0578H11.6928C11.6928 18.8882 11.8304 18.7506 12 18.7506V18.2506ZM12.8071 19.0578C12.8071 18.6121 12.4457 18.2506 12 18.2506V18.7506C12.1695 18.7506 12.3071 18.8882 12.3071 19.0578H12.8071ZM12.8071 21.2866V19.0578H12.3071V21.2866H12.8071ZM12 22.0938C12.4457 22.0938 12.8071 21.7323 12.8071 21.2866H12.3071C12.3071 21.4562 12.1695 21.5938 12 21.5938V22.0938ZM11.1928 21.2866C11.1928 21.7323 11.5542 22.0938 12 22.0938V21.5938C11.8304 21.5938 11.6928 21.4562 11.6928 21.2866H11.1928ZM11.1928 19.0578V21.2866H11.6928V19.0578H11.1928ZM19.0577 11.6928H21.2865V11.1928H19.0577V11.6928ZM18.7505 12C18.7505 11.8304 18.8881 11.6928 19.0577 11.6928V11.1928C18.6119 11.1928 18.2505 11.5542 18.2505 12H18.7505ZM19.0577 12.3071C18.8881 12.3071 18.7505 12.1695 18.7505 12H18.2505C18.2505 12.4457 18.6119 12.8071 19.0577 12.8071V12.3071ZM21.2865 12.3071H19.0577V12.8071H21.2865V12.3071ZM21.5936 12C21.5936 12.1695 21.456 12.3071 21.2865 12.3071V12.8071C21.7322 12.8071 22.0936 12.4457 22.0936 12H21.5936ZM21.2865 11.6928C21.456 11.6928 21.5936 11.8304 21.5936 12H22.0936C22.0936 11.5542 21.7322 11.1928 21.2865 11.1928V11.6928ZM4.94222 11.1928H2.71344V11.6928H4.94222V11.1928ZM5.74941 12C5.74941 11.5542 5.38795 11.1928 4.94222 11.1928V11.6928C5.11181 11.6928 5.24941 11.8304 5.24941 12H5.74941ZM4.94222 12.8071C5.38795 12.8071 5.74941 12.4457 5.74941 12H5.24941C5.24941 12.1695 5.11181 12.3071 4.94222 12.3071V12.8071ZM2.71344 12.8071H4.94222V12.3071H2.71344V12.8071ZM1.90625 12C1.90625 12.4457 2.26771 12.8071 2.71344 12.8071V12.3071C2.54385 12.3071 2.40625 12.1695 2.40625 12H1.90625ZM2.71344 11.1928C2.26771 11.1928 1.90625 11.5542 1.90625 12H2.40625C2.40625 11.8304 2.54385 11.6928 2.71344 11.6928V11.1928ZM17.2077 7.22669C17.1478 7.28666 17.0696 7.31663 16.9906 7.31663V7.81663C17.1967 7.81663 17.4038 7.73776 17.5613 7.58024L17.2077 7.22669ZM18.1928 6.24166L17.2077 7.22669L17.5613 7.58024L18.5463 6.59522L18.1928 6.24166ZM18.1928 5.80725C18.3127 5.9272 18.3127 6.12171 18.1928 6.24166L18.5463 6.59522C18.8615 6.28 18.8615 5.76891 18.5463 5.4537L18.1928 5.80725ZM17.7584 5.80721C17.8783 5.68731 18.0729 5.68731 18.1927 5.80721L18.5464 5.45374C18.2312 5.13847 17.7199 5.13847 17.4048 5.45374L17.7584 5.80721ZM16.7734 6.79218L17.7584 5.80725L17.4048 5.4537L16.4199 6.43863L16.7734 6.79218ZM16.7734 7.22669C16.6534 7.10664 16.6534 6.91223 16.7734 6.79218L16.4199 6.43863C16.1046 6.75394 16.1046 7.26493 16.4199 7.58024L16.7734 7.22669ZM16.9906 7.31663C16.9116 7.31663 16.8334 7.28666 16.7734 7.22669L16.4199 7.58024C16.5774 7.73776 16.7845 7.81663 16.9906 7.81663V7.31663ZM6.43882 16.4199L5.45388 17.4048L5.80744 17.7583L6.79237 16.7734L6.43882 16.4199ZM7.58041 16.4199C7.26525 16.1045 6.75398 16.1046 6.43878 16.4199L6.79241 16.7734C6.91237 16.6534 7.10688 16.6534 7.22671 16.7733L7.58041 16.4199ZM7.58026 17.5614C7.89569 17.2462 7.89563 16.735 7.5803 16.4198L7.22682 16.7734C7.34684 16.8934 7.34678 17.0878 7.22686 17.2076L7.58026 17.5614ZM6.59541 18.5463L7.58034 17.5613L7.22677 17.2077L6.24184 18.1928L6.59541 18.5463ZM6.0246 18.7828C6.23082 18.7828 6.43792 18.7039 6.59548 18.5462L6.24177 18.1928C6.18183 18.2528 6.10366 18.2828 6.0246 18.2828V18.7828ZM5.45381 18.5462C5.61134 18.7039 5.81845 18.7828 6.0246 18.7828V18.2828C5.94565 18.2828 5.86747 18.2528 5.80751 18.1928L5.45381 18.5462ZM5.45392 17.4047C5.13856 17.72 5.13856 18.2311 5.45392 18.5463L5.8074 18.1927C5.6874 18.0728 5.6874 17.8783 5.8074 17.7584L5.45392 17.4047ZM16.7735 16.7733C16.8932 16.6534 17.0878 16.6534 17.2076 16.7733L17.5614 16.4199C17.2462 16.1045 16.7348 16.1045 16.4197 16.42L16.7735 16.7733ZM16.7733 17.2076C16.6534 17.0878 16.6533 16.8934 16.7734 16.7734L16.4199 16.4198C16.1045 16.735 16.1045 17.2462 16.4199 17.5614L16.7733 17.2076ZM17.7583 18.1928L16.7734 17.2077L16.4198 17.5613L17.4048 18.5463L17.7583 18.1928ZM17.9755 18.2828C17.8966 18.2828 17.8184 18.2528 17.7584 18.1928L17.4047 18.5462C17.5622 18.7039 17.7693 18.7828 17.9755 18.7828V18.2828ZM18.1925 18.1929C18.1327 18.2528 18.0545 18.2828 17.9755 18.2828V18.7828C18.1816 18.7828 18.3888 18.7039 18.5464 18.5462L18.1925 18.1929ZM18.1927 17.7584C18.3127 17.8783 18.3127 18.0728 18.1927 18.1927L18.5462 18.5463C18.8615 18.2311 18.8615 17.72 18.5462 17.4047L18.1927 17.7584ZM17.2077 16.7734L18.1927 17.7583L18.5462 17.4048L17.5613 16.4199L17.2077 16.7734ZM6.43882 7.58024C6.59635 7.73777 6.80341 7.81663 7.00962 7.81663V7.31663C6.93055 7.31663 6.85233 7.28665 6.79237 7.22669L6.43882 7.58024ZM5.45388 6.59531L6.43882 7.58024L6.79237 7.22669L5.80744 6.24176L5.45388 6.59531ZM5.45392 5.45366C5.13854 5.7689 5.1386 6.28002 5.45388 6.59531L5.80744 6.24176C5.68737 6.12169 5.68742 5.92721 5.8074 5.80729L5.45392 5.45366ZM6.5954 5.4537C6.28021 5.1385 5.769 5.13845 5.45385 5.45374L5.80747 5.80721C5.9273 5.68733 6.12187 5.68728 6.24185 5.80725L6.5954 5.4537ZM7.58034 6.43873L6.59541 5.45371L6.24184 5.80724L7.22677 6.79227L7.58034 6.43873ZM7.5803 7.58028C7.89566 7.26506 7.89566 6.75391 7.5803 6.43869L7.22682 6.79231C7.34681 6.91226 7.34681 7.10671 7.22682 7.22665L7.5803 7.58028ZM7.00962 7.81663C7.21576 7.81663 7.42282 7.73776 7.58033 7.58024L7.22678 7.22669C7.1668 7.28666 7.08858 7.31663 7.00962 7.31663V7.81663Z" fill="#A5A5B4"/>
</svg>
