<svg width="24" height="24" viewBox="0 0 24 24" fill="none" xmlns="http://www.w3.org/2000/svg">
<path fill-rule="evenodd" clip-rule="evenodd" d="M11.9994 2.15625C6.43445 2.15625 1.92188 6.66821 1.92188 12.235C1.92188 16.6869 4.80921 20.4639 8.81447 21.7971C9.31869 21.8893 9.50243 21.5781 9.50243 21.3109C9.50243 21.0721 9.49377 20.4379 9.48882 19.5972C6.68563 20.2059 6.09418 18.246 6.09418 18.246C5.63575 17.0817 4.97501 16.7723 4.97501 16.7723C4.06 16.1468 5.0443 16.1592 5.0443 16.1592C6.05582 16.231 6.58788 17.198 6.58788 17.198C7.48681 18.7378 8.94625 18.293 9.52099 18.0356C9.61255 17.3842 9.8724 16.94 10.1607 16.6882C7.92297 16.4339 5.57017 15.569 5.57017 11.7073C5.57017 10.6073 5.96302 9.70773 6.60768 9.00307C6.50374 8.74817 6.1579 7.72366 6.70605 6.33598C6.70605 6.33598 7.55239 6.065 9.47768 7.36916C10.2813 7.1452 11.1438 7.03384 12.0006 7.02951C12.8562 7.03384 13.7187 7.1452 14.5236 7.36916C16.4476 6.065 17.2921 6.33598 17.2921 6.33598C17.8421 7.72366 17.4963 8.74817 17.3923 9.00307C18.0382 9.70773 18.4286 10.6073 18.4286 11.7073C18.4286 15.5789 16.0721 16.4308 13.8269 16.6801C14.1889 16.9913 14.5112 17.6063 14.5112 18.5467C14.5112 19.8935 14.4988 20.9805 14.4988 21.3109C14.4988 21.5806 14.6801 21.8943 15.1917 21.7959C19.1927 20.4602 22.0781 16.6857 22.0781 12.235C22.0781 6.66821 17.5655 2.15625 11.9994 2.15625Z" fill="#A5A5B4"/>
</svg>
