<svg width="24" height="24" viewBox="0 0 24 24" fill="none" xmlns="http://www.w3.org/2000/svg">
<path fill-rule="evenodd" clip-rule="evenodd" d="M17.5509 8.01562C17.2182 8.01562 16.9363 7.9009 16.7052 7.6698C16.4757 7.4387 16.3594 7.16335 16.3594 6.84375C16.3594 6.52415 16.4757 6.2488 16.7052 6.0177C16.9363 5.78824 17.2116 5.67188 17.5312 5.67188C17.8525 5.67188 18.1278 5.78824 18.3573 6.0177C18.5884 6.2488 18.7031 6.52415 18.7031 6.84375C18.7031 7.16335 18.5884 7.4387 18.3573 7.6698C18.1278 7.9009 17.8574 8.01562 17.5509 8.01562ZM12.3516 8.76562C11.4595 8.76562 10.7012 9.07901 10.0767 9.70741C9.45373 10.3358 9.14062 11.0922 9.14062 11.9766C9.14062 12.8609 9.45373 13.6173 10.0767 14.2457C10.7012 14.8725 11.4595 15.1875 12.3516 15.1875C13.2436 15.1875 14.0019 14.8725 14.6248 14.2457C15.2494 13.6173 15.5625 12.8609 15.5625 11.9766C15.5625 11.0922 15.2494 10.3358 14.6248 9.70741C14.0019 9.07901 13.2436 8.76562 12.3516 8.76562ZM12.3946 16.9688C11.4991 16.9688 10.6675 16.751 9.90127 16.3121C9.13344 15.8732 8.52606 15.2743 8.07748 14.5137C7.63054 13.753 7.40625 12.9149 7.40625 12.0008C7.40625 11.0851 7.63054 10.247 8.07748 9.48634C8.52606 8.72572 9.13344 8.1268 9.90127 7.68957C10.6675 7.25069 11.4991 7.03125 12.3946 7.03125C13.2902 7.03125 14.1218 7.25069 14.888 7.68957C15.6558 8.1268 16.2567 8.72572 16.6922 9.48634C17.1276 10.247 17.3438 11.0851 17.3438 12.0008C17.3438 12.9149 17.1276 13.753 16.6922 14.5137C16.2567 15.2743 15.6558 15.8732 14.888 16.3121C14.1218 16.751 13.2902 16.9688 12.3946 16.9688ZM6.64749 4.45603C6.23888 4.60915 5.86786 4.84788 5.53607 5.16894C5.20427 5.49164 4.96237 5.85715 4.80873 6.26876C4.60443 6.75775 4.47694 7.5431 4.42464 8.62316C4.40012 9.24057 4.40012 10.1412 4.42464 11.325V12.675C4.40012 13.8588 4.40012 14.7594 4.42464 15.3768C4.47694 16.4569 4.60443 17.2406 4.80873 17.7296C4.96237 18.1412 5.20427 18.5084 5.53607 18.8294C5.86786 19.1521 6.23888 19.3892 6.64749 19.544C7.13293 19.7498 7.91093 19.8782 8.98313 19.9292C9.59605 19.9556 10.4901 19.9688 11.6653 19.9688H13.0447C14.1938 19.9688 15.0878 19.9556 15.7252 19.9292C16.7991 19.8782 17.5771 19.7498 18.0625 19.544C18.4711 19.3892 18.8356 19.1521 19.1543 18.8294C19.473 18.5084 19.7231 18.1412 19.9013 17.7296C20.0794 17.2406 20.1955 16.4569 20.2461 15.3768C20.2968 14.7594 20.3099 13.8588 20.2837 12.675V11.325C20.3099 10.1412 20.2968 9.24057 20.2461 8.62316C20.1955 7.5431 20.0794 6.75775 19.9013 6.26876C19.7231 5.85715 19.473 5.49164 19.1543 5.16894C18.8356 4.84788 18.4711 4.60915 18.0625 4.45603C17.5771 4.25023 16.7991 4.1218 15.7252 4.06912C15.0878 4.04442 14.1938 4.03125 13.0447 4.03125H11.6653C10.4901 4.03125 9.59605 4.04442 8.98313 4.06912C7.91093 4.1218 7.13293 4.25023 6.64749 4.45603ZM22.0012 15.9943C21.9505 16.8421 21.8212 17.5746 21.6167 18.1919C21.3614 18.9129 20.9655 19.5368 20.4288 20.0636C19.8921 20.592 19.2654 20.9838 18.5487 21.2406C17.9351 21.4463 17.2069 21.5747 16.3626 21.6258C15.5968 21.6784 14.4334 21.7031 12.8741 21.7031H11.8759C10.3166 21.7031 9.15317 21.6784 8.38576 21.6258C7.51689 21.5747 6.78875 21.4463 6.20133 21.2406C5.48464 20.9838 4.85794 20.592 4.32124 20.0636C3.78454 19.5368 3.38856 18.9129 3.13167 18.1919C2.92713 17.5746 2.7995 16.8421 2.74878 15.9943C2.69806 15.2223 2.67188 14.0651 2.67188 12.521V11.479C2.67188 9.93657 2.69806 8.77934 2.74878 8.00731C2.7995 7.1579 2.92713 6.42537 3.13167 5.80807C3.38856 5.08871 3.78454 4.46483 4.32124 3.93642C4.85794 3.40966 5.48464 3.01788 6.20133 2.75944C6.78875 2.55367 7.51689 2.42527 8.38576 2.37424C9.15317 2.32321 10.3166 2.29688 11.8759 2.29688H12.8741C14.4334 2.29688 15.5968 2.32321 16.3626 2.37424C17.2069 2.42527 17.9351 2.55367 18.5487 2.75944C19.2654 3.01788 19.8921 3.40966 20.4288 3.93642C20.9655 4.46483 21.3614 5.08871 21.6167 5.80807C21.8212 6.42537 21.9505 7.1579 22.0012 8.00731C22.0519 8.77934 22.0781 9.93657 22.0781 11.479V12.521C22.0781 14.0651 22.0519 15.2223 22.0012 15.9943Z" fill="#A5A5B4"/>
</svg>
