<svg width="24" height="24" viewBox="0 0 24 24" fill="none" xmlns="http://www.w3.org/2000/svg">
<path fill-rule="evenodd" clip-rule="evenodd" d="M19.9999 18.2814H16.5625V12.7814C16.5625 12.052 16.4212 11.4787 16.1399 11.0627C15.8599 10.6454 15.4265 10.4374 14.8439 10.4374C14.4065 10.4374 14.0212 10.5734 13.6879 10.844C13.4172 11.052 13.2079 11.3334 13.0625 11.688C12.9999 11.896 12.9692 12.1774 12.9692 12.532V18.2814H9.53054C9.55187 14.3854 9.56254 11.5 9.56254 9.62535L9.53054 7.96935H12.9692V9.46935H12.9372C13.2505 8.96935 13.5932 8.59335 13.9692 8.34402C14.5305 7.92669 15.2292 7.71869 16.0625 7.71869C17.2492 7.71869 18.1879 8.10402 18.8746 8.87469C19.6252 9.68802 19.9999 10.8547 19.9999 12.3747V18.2814ZM4.18789 18.2815H7.62522V7.96946H4.18789V18.2815ZM4.516 6.04667C4.172 5.70267 4 5.276 4 4.76533C4 4.25467 4.17733 3.83333 4.53067 3.5C4.88533 3.16667 5.35467 3 5.93733 3C6.52133 3 6.984 3.16667 7.328 3.5C7.672 3.83333 7.84933 4.25467 7.86 4.76533C7.86933 5.276 7.69333 5.70267 7.328 6.04667C6.964 6.39067 6.48933 6.56267 5.90667 6.56267C5.32267 6.56267 4.86 6.39067 4.516 6.04667Z" fill="#A5A5B4"/>
</svg>
