<svg width="24" height="24" viewBox="0 0 24 24" fill="none" xmlns="http://www.w3.org/2000/svg">
<path fill-rule="evenodd" clip-rule="evenodd" d="M19.5469 19.1971H16.3042V14.0086C16.3042 13.3206 16.1709 12.7797 15.9055 12.3873C15.6414 11.9936 15.2326 11.7974 14.6829 11.7974C14.2703 11.7974 13.9068 11.9257 13.5924 12.181C13.337 12.3772 13.1396 12.6426 13.0025 12.9772C12.9433 13.1734 12.9144 13.4388 12.9144 13.7734V19.1971H9.67051C9.69063 15.5217 9.7007 12.7998 9.7007 11.0313L9.67051 9.46915H12.9144V10.8842H12.8842C13.1798 10.4125 13.5031 10.0578 13.8578 9.82259C14.3873 9.4289 15.0464 9.23268 15.8325 9.23268C16.952 9.23268 17.8375 9.59619 18.4853 10.3232C19.1934 11.0905 19.5469 12.1911 19.5469 13.625V19.1971ZM4.63029 19.1971H7.87293V9.46914H4.63029V19.1971ZM4.9399 7.65535C4.61538 7.33084 4.45312 6.92834 4.45312 6.44659C4.45312 5.96485 4.62041 5.56738 4.95373 5.25293C5.28831 4.93848 5.73106 4.78125 6.28073 4.78125C6.83165 4.78125 7.26811 4.93848 7.59263 5.25293C7.91714 5.56738 8.08443 5.96485 8.09449 6.44659C8.1033 6.92834 7.93727 7.33084 7.59263 7.65535C7.24924 7.97987 6.80146 8.14213 6.2518 8.14213C5.70088 8.14213 5.26441 7.97987 4.9399 7.65535Z" fill="#A5A5B4"/>
</svg>
