<svg width="24" height="24" viewBox="0 0 24 24" fill="none" xmlns="http://www.w3.org/2000/svg">
<path d="M16.3158 8.33333H15.5789V6.80952C15.5789 4.70667 13.9284 3 11.8947 3C9.86105 3 8.21053 4.70667 8.21053 6.80952V8.33333H7.47368C6.66316 8.33333 6 9.01905 6 9.85714V17.4762C6 18.3143 6.66316 19 7.47368 19H16.3158C17.1263 19 17.7895 18.3143 17.7895 17.4762V9.85714C17.7895 9.01905 17.1263 8.33333 16.3158 8.33333ZM11.8947 15.1905C11.0842 15.1905 10.4211 14.5048 10.4211 13.6667C10.4211 12.8286 11.0842 12.1429 11.8947 12.1429C12.7053 12.1429 13.3684 12.8286 13.3684 13.6667C13.3684 14.5048 12.7053 15.1905 11.8947 15.1905ZM14.1789 8.33333H9.61053V6.80952C9.61053 5.50667 10.6347 4.44762 11.8947 4.44762C13.1547 4.44762 14.1789 5.50667 14.1789 6.80952V8.33333Z" fill="#A5A5B4"/>
</svg>
