<svg width="24" height="24" viewBox="0 0 24 24" fill="none" xmlns="http://www.w3.org/2000/svg">
<path fill-rule="evenodd" clip-rule="evenodd" d="M5.1345 7.06015C5.157 6.8279 5.07225 6.5988 4.90725 6.44292L3.22725 4.31727V4H8.44575L12.4792 13.2859L16.0253 4H21V4.31727L19.563 5.7635C19.4392 5.8627 19.3778 6.02567 19.4032 6.18706V16.8137C19.3778 16.9743 19.4392 17.1373 19.563 17.2365L20.9662 18.6827V19H13.9073V18.6827L15.3615 17.2011C15.504 17.0515 15.504 17.0074 15.504 16.7783V8.1891L11.4622 18.9654H10.9163L6.21 8.1891V15.4116C6.171 15.7147 6.267 16.0209 6.47025 16.2398L8.361 18.6473V18.9654H3V18.6473L4.89075 16.2398C5.09325 16.0202 5.18325 15.7123 5.1345 15.4116V7.06015Z" fill="#A5A5B4"/>
</svg>
