<svg width="24" height="24" viewBox="0 0 24 24" fill="none" xmlns="http://www.w3.org/2000/svg">
<path fill-rule="evenodd" clip-rule="evenodd" d="M9.35265 5.91124C8.43417 6.32953 7.61305 6.95782 6.96686 7.74845C6.00849 8.92115 5.48075 10.4028 5.48075 11.9204C5.48075 15.5589 8.44096 18.5191 12.0795 18.5191C13.5971 18.5191 15.0787 17.9913 16.2515 17.033C17.042 16.3868 17.6703 15.5657 18.0886 14.6472C17.1641 15.1368 16.128 15.3978 15.0665 15.3978C11.502 15.3978 8.602 12.4979 8.602 8.93333C8.602 7.8718 8.86309 6.83577 9.35265 5.91124M12.0797 19.5C7.90024 19.5 4.5 16.0999 4.5 11.9204C4.5 10.1772 5.10638 8.47507 6.20748 7.12768C7.29304 5.79941 8.8094 4.87014 10.4772 4.51096C10.6845 4.46657 10.8964 4.55968 11.0035 4.74221C11.1107 4.92475 11.0886 5.15543 10.9488 5.31442C10.0681 6.31563 9.58311 7.6009 9.58311 8.93333C9.58311 11.957 12.043 14.4169 15.0667 14.4169C16.3992 14.4169 17.6844 13.9318 18.6856 13.0513C18.8446 12.9113 19.0754 12.8894 19.2578 12.9965C19.4403 13.1036 19.5335 13.3158 19.489 13.5227C19.1299 15.1907 18.2006 16.707 16.8723 17.7925C15.5249 18.8936 13.8229 19.5 12.0797 19.5" fill="#A5A5B4"/>
<path d="M6.96686 7.74845L6.77329 7.59024L6.77328 7.59025L6.96686 7.74845ZM16.2515 17.033L16.4097 17.2266L16.4097 17.2265L16.2515 17.033ZM18.0886 14.6472L18.3161 14.7508L18.6204 14.0827L17.9716 14.4263L18.0886 14.6472ZM6.20748 7.12768L6.0139 6.96947L6.0139 6.96948L6.20748 7.12768ZM10.4772 4.51096L10.4249 4.2665L10.4246 4.26656L10.4772 4.51096ZM11.0035 4.74221L10.7879 4.86871L10.7879 4.86879L11.0035 4.74221ZM10.9488 5.31442L11.1365 5.47954L11.1366 5.47949L10.9488 5.31442ZM18.6856 13.0513L18.8507 13.239L18.8508 13.2389L18.6856 13.0513ZM19.2578 12.9965L19.1313 13.2121L19.1313 13.2121L19.2578 12.9965ZM19.489 13.5227L19.2446 13.4701L19.2446 13.4701L19.489 13.5227ZM16.8723 17.7925L16.7141 17.599L16.7141 17.599L16.8723 17.7925ZM9.24904 5.68373C8.29598 6.11776 7.44398 6.76964 6.77329 7.59024L7.16043 7.90666C7.78213 7.146 8.57237 6.5413 9.45627 6.13876L9.24904 5.68373ZM6.77328 7.59025C5.77834 8.80771 5.23075 10.3452 5.23075 11.9204H5.73075C5.73075 10.4603 6.23864 9.0346 7.16044 7.90665L6.77328 7.59025ZM5.23075 11.9204C5.23075 15.697 8.30289 18.7691 12.0795 18.7691V18.2691C8.57903 18.2691 5.73075 15.4208 5.73075 11.9204H5.23075ZM12.0795 18.7691C13.6547 18.7691 15.1921 18.2214 16.4097 17.2266L16.0933 16.8394C14.9652 17.7611 13.5396 18.2691 12.0795 18.2691V18.7691ZM16.4097 17.2265C17.2302 16.5559 17.8821 15.7039 18.3161 14.7508L17.8611 14.5436C17.4585 15.4275 16.8538 16.2177 16.0933 16.8394L16.4097 17.2265ZM17.9716 14.4263C17.0829 14.8969 16.087 15.1478 15.0665 15.1478V15.6478C16.1691 15.6478 17.2454 15.3766 18.2056 14.8681L17.9716 14.4263ZM15.0665 15.1478C11.64 15.1478 8.852 12.3598 8.852 8.93333H8.352C8.352 12.636 11.3639 15.6478 15.0665 15.6478V15.1478ZM8.852 8.93333C8.852 7.91287 9.10297 6.91698 9.57359 6.02824L9.13172 5.79425C8.6232 6.75457 8.352 7.83073 8.352 8.93333H8.852ZM12.0797 19.25C8.03831 19.25 4.75 15.9618 4.75 11.9204H4.25C4.25 16.2379 7.76217 19.75 12.0797 19.75V19.25ZM4.75 11.9204C4.75 10.2347 5.33652 8.58853 6.40106 7.28587L6.0139 6.96948C4.87624 8.36161 4.25 10.1196 4.25 11.9204H4.75ZM6.40105 7.28588C7.45097 6.00123 8.91775 5.10254 10.5299 4.75536L10.4246 4.26656C8.70105 4.63775 7.13511 5.5976 6.0139 6.96947L6.40105 7.28588ZM10.5296 4.75541C10.6317 4.73355 10.7355 4.7794 10.7879 4.86871L11.2191 4.61571C11.0574 4.33996 10.7373 4.19959 10.4249 4.2665L10.5296 4.75541ZM10.7879 4.86879C10.8404 4.95823 10.8297 5.07134 10.7611 5.14935L11.1366 5.47949C11.3475 5.23953 11.3809 4.89127 11.2191 4.61564L10.7879 4.86879ZM10.7611 5.1493C9.84027 6.19612 9.33311 7.54007 9.33311 8.93333H9.83311C9.83311 7.66172 10.2959 6.43514 11.1365 5.47954L10.7611 5.1493ZM9.33311 8.93333C9.33311 12.095 11.905 14.6669 15.0667 14.6669V14.1669C12.1811 14.1669 9.83311 11.8189 9.83311 8.93333H9.33311ZM15.0667 14.6669C16.46 14.6669 17.8039 14.1597 18.8507 13.239L18.5205 12.8636C17.5649 13.704 16.3384 14.1669 15.0667 14.1669V14.6669ZM18.8508 13.2389C18.9287 13.1704 19.0418 13.1596 19.1313 13.2121L19.3843 12.7809C19.1089 12.6193 18.7605 12.6523 18.5204 12.8636L18.8508 13.2389ZM19.1313 13.2121C19.2207 13.2646 19.2664 13.3686 19.2446 13.4701L19.7334 13.5753C19.8006 13.263 19.66 12.9426 19.3843 12.7809L19.1313 13.2121ZM19.2446 13.4701C18.8975 15.0824 17.9988 16.549 16.7141 17.599L17.0305 17.9861C18.4024 16.8649 19.3623 15.299 19.7334 13.5753L19.2446 13.4701ZM16.7141 17.599C15.4115 18.6635 13.7654 19.25 12.0797 19.25V19.75C13.8805 19.75 15.6384 19.1238 17.0305 17.9861L16.7141 17.599Z" fill="#A5A5B4"/>
</svg>
