<svg width="24" height="24" viewBox="0 0 24 24" fill="none" xmlns="http://www.w3.org/2000/svg">
<path fill-rule="evenodd" clip-rule="evenodd" d="M6.7037 3C4.6582 3 3 4.65141 3 6.68852V17.0164C3 19.2165 4.79086 21 7 21H11.3704C13.5795 21 15.3704 19.2165 15.3704 17.0164V15.541H17.5926C19.4745 15.541 21 14.0217 21 12.1475V6.68852C21 4.65141 19.3418 3 17.2963 3H6.7037ZM15.2963 4.03279V8.7541H19.963V6.68852C19.963 5.2218 18.7691 4.03279 17.2963 4.03279H15.2963ZM15.2963 9.78689V14.5082H17.5926C18.9017 14.5082 19.963 13.4513 19.963 12.1475V9.78688L15.2963 9.78689ZM8.7037 8.7541V4.03279H6.7037C5.23094 4.03279 4.03704 5.2218 4.03704 6.68852V8.7541L8.7037 8.7541ZM8.7037 14.5082V9.78689H4.03704V14.5082H8.7037ZM9.66666 4.03279V8.7541H14.3333V4.03279H9.66666ZM9.66666 9.78688V14.5082H14.3333V9.78688H9.66666ZM8.7037 15.541V19.9672H7C5.3636 19.9672 4.03704 18.6461 4.03704 17.0164V15.541H8.7037ZM9.66666 15.541V19.9672H11.3704C13.0068 19.9672 14.3333 18.6461 14.3333 17.0164V15.541H9.66666Z" fill="#A5A5B4"/>
</svg>
