<svg width="24" height="24" viewBox="0 0 24 24" fill="none" xmlns="http://www.w3.org/2000/svg">
<path fill-rule="evenodd" clip-rule="evenodd" d="M20.18 8.28043C20.18 10.2546 19.7129 12.1603 18.777 13.9976C17.8138 15.9437 16.4638 17.4932 14.7255 18.6443C12.8281 19.9341 10.6501 20.5781 8.18974 20.5781C5.8372 20.5781 3.68484 19.9341 1.73438 18.6443C2.02866 18.6724 2.36229 18.6864 2.73698 18.6864C4.68745 18.6864 6.43945 18.0688 7.98956 16.8351C7.05368 16.807 6.23243 16.5193 5.5241 15.9718C4.81577 15.4225 4.32645 14.71 4.05954 13.8326C4.35382 13.887 4.60704 13.9151 4.82091 13.9151C5.1956 13.9151 5.5703 13.8607 5.94499 13.7502C4.98173 13.5589 4.1793 13.0658 3.5377 12.2691C2.8961 11.4742 2.57616 10.5564 2.57616 9.51406V9.4737C3.16472 9.82993 3.79263 10.0212 4.4599 10.0493C3.89871 9.6369 3.44531 9.11748 3.09799 8.48574C2.74896 7.85577 2.57616 7.16262 2.57616 6.40981C2.57616 5.65524 2.77634 4.93577 3.1767 4.24964C4.22037 5.59382 5.49673 6.6625 7.00748 7.45743C8.51824 8.25236 10.1282 8.69106 11.8392 8.77353C11.7861 8.41731 11.7588 8.08916 11.7588 7.78733C11.7588 6.9924 11.947 6.26591 12.3199 5.60786C12.6946 4.94981 13.2028 4.42863 13.8444 4.04433C14.486 3.66002 15.1806 3.46875 15.93 3.46875C16.5443 3.46875 17.1123 3.59159 17.6341 3.83901C18.1542 4.08469 18.6162 4.41459 19.0166 4.82522C19.9798 4.63394 20.8746 4.29175 21.7044 3.7969C21.3828 4.81118 20.7686 5.60786 19.86 6.18344C20.6608 6.07288 21.4632 5.8395 22.2656 5.48327C21.6771 6.36067 20.9687 7.11524 20.1406 7.74522L20.18 8.28043Z" fill="#A5A5B4"/>
</svg>
