<svg width="24" height="24" viewBox="0 0 24 24" fill="none" xmlns="http://www.w3.org/2000/svg">
<path fill-rule="evenodd" clip-rule="evenodd" d="M19.655 7.72183C19.5896 9.33078 18.4483 11.5494 16.2298 14.3762C13.968 17.3338 12.0543 18.8133 10.4885 18.8133C9.51002 18.8133 8.68328 17.91 8.00963 16.1048L6.67209 11.1791C6.17103 9.37393 5.62822 8.47203 5.04087 8.47203C4.9323 8.47203 4.49666 8.73369 3.73533 9.25562L2.95312 8.24377L5.39996 6.09061C6.4647 5.13442 7.29145 4.63337 7.8788 4.59022C8.53157 4.5248 9.0535 4.70992 9.44461 5.14417C9.83571 5.57981 10.1085 6.27572 10.2602 7.23191C10.565 9.21109 10.7933 10.4832 10.945 11.0497C11.3152 12.7672 11.7286 13.626 12.1851 13.626C12.5331 13.626 13.055 13.0776 13.7509 11.9794C14.4468 10.8813 14.8157 10.0378 14.8602 9.45048C14.9688 8.49429 14.5985 8.01551 13.7509 8.01551C13.3598 8.01551 12.9464 8.1018 12.5108 8.27578C13.3375 5.60208 14.9034 4.29654 17.2082 4.36196C18.9271 4.42738 19.7413 5.5478 19.655 7.72183Z" fill="#A5A5B4"/>
</svg>
