<svg width="24" height="24" viewBox="0 0 24 24" fill="none" xmlns="http://www.w3.org/2000/svg">
<path fill-rule="evenodd" clip-rule="evenodd" d="M17.4226 20.335L13.818 13.7132L19.4682 3.69528C19.5599 3.55625 19.5717 3.42905 19.5022 3.31368C19.4341 3.19831 19.3173 3.14062 19.1561 3.14062H16.5558C16.3946 3.14062 16.2615 3.18056 16.158 3.26191C16.0529 3.34326 15.9672 3.46455 15.8976 3.62577L10.212 13.7487L13.818 20.4046C14.0029 20.7285 14.2455 20.8897 14.5457 20.8897H17.0765C17.2377 20.8897 17.3531 20.832 17.4226 20.7166C17.4921 20.6013 17.4921 20.4741 17.4226 20.335ZM7.40473 15.5858C7.68132 15.5858 7.91354 15.4246 8.09842 15.1007L10.8362 10.1782L9.10273 7.12689C8.91784 6.80445 8.67527 6.64175 8.37501 6.64175H5.84429C5.6594 6.64175 5.5322 6.69351 5.46269 6.79853C5.39317 6.90207 5.405 7.03518 5.49818 7.19641L7.23168 10.1782V10.2123L4.52642 14.9971C4.43472 15.1347 4.4288 15.2678 4.51015 15.395C4.59002 15.5222 4.70095 15.5858 4.83851 15.5858H7.40473Z" fill="#A5A5B4"/>
</svg>
